<svg width="54" height="34" viewBox="0 0 54 34" fill="none" xmlns="http://www.w3.org/2000/svg">
<path fill-rule="evenodd" clip-rule="evenodd" d="M0 2.55C0 1.8737 0.266684 1.2251 0.741386 0.746877C1.21609 0.26866 1.85992 0 2.53125 0H51.4688C52.1401 0 52.7839 0.26866 53.2586 0.746877C53.7333 1.2251 54 1.8737 54 2.55C54 3.2263 53.7333 3.8749 53.2586 4.35312C52.7839 4.83134 52.1401 5.1 51.4688 5.1H2.53125C1.85992 5.1 1.21609 4.83134 0.741386 4.35312C0.266684 3.8749 0 3.2263 0 2.55ZM0 17C0 16.3237 0.266684 15.6751 0.741386 15.1969C1.21609 14.7187 1.85992 14.45 2.53125 14.45H51.4688C52.1401 14.45 52.7839 14.7187 53.2586 15.1969C53.7333 15.6751 54 16.3237 54 17C54 17.6763 53.7333 18.3249 53.2586 18.8031C52.7839 19.2813 52.1401 19.55 51.4688 19.55H2.53125C1.85992 19.55 1.21609 19.2813 0.741386 18.8031C0.266684 18.3249 0 17.6763 0 17ZM2.53125 28.9C1.85992 28.9 1.21609 29.1687 0.741386 29.6469C0.266684 30.1251 0 30.7737 0 31.45C0 32.1263 0.266684 32.7749 0.741386 33.2531C1.21609 33.7313 1.85992 34 2.53125 34H51.4688C52.1401 34 52.7839 33.7313 53.2586 33.2531C53.7333 32.7749 54 32.1263 54 31.45C54 30.7737 53.7333 30.1251 53.2586 29.6469C52.7839 29.1687 52.1401 28.9 51.4688 28.9H2.53125Z" fill="#A98142"/>
</svg>
